<?xml version="1.0" standalone="no"?>
<!DOCTYPE svg PUBLIC "-//W3C//DTD SVG 20010904//EN"
 "http://www.w3.org/TR/2001/REC-SVG-20010904/DTD/svg10.dtd">
<svg version="1.0" xmlns="http://www.w3.org/2000/svg"
 width="256.000000pt" height="256.000000pt" viewBox="0 0 256.000000 256.000000"
 preserveAspectRatio="xMidYMid meet">

<g transform="translate(0.000000,256.000000) scale(0.100000,-0.100000)"
fill="#aa2525" stroke="none">
<path d="M0 1388 c0 -125 5 -240 11 -261 15 -56 62 -103 127 -128 49 -20 76
-23 197 -23 157 0 231 15 285 60 62 53 65 65 68 333 l4 243 -44 -7 c-24 -4
-59 -14 -78 -23 l-35 -17 -5 -208 -5 -209 -27 -23 c-34 -29 -94 -39 -199 -33
-70 4 -84 8 -107 32 l-27 26 -5 208 -5 207 -35 17 c-19 9 -54 19 -77 23 l-43
7 0 -224z"/>
<path d="M730 1605 c0 -3 95 -147 210 -320 l210 -315 55 0 55 0 210 315 c115
173 210 317 210 320 0 18 -160 -7 -198 -32 -13 -8 -77 -96 -143 -196 -67 -100
-125 -186 -129 -191 -5 -5 -63 74 -133 180 -68 104 -130 194 -138 201 -31 25
-209 58 -209 38z"/>
<path d="M1720 1290 l0 -320 80 0 80 0 2 197 3 197 124 -142 c68 -78 128 -142
132 -142 4 0 62 64 130 142 l124 141 3 -196 2 -197 80 0 80 0 0 321 0 322 -42
-7 c-91 -14 -103 -23 -238 -172 -72 -79 -135 -144 -139 -144 -5 0 -67 65 -140
145 -120 132 -135 146 -183 160 -28 8 -62 15 -75 15 l-23 0 0 -320z"/>
</g>
</svg>
